PathFileType	4	(X/Y/Z)	..\data\2014050\dynamic\2014050_C5_05.trc
DataRate	CameraRate	NumFrames	NumMarkers	Units	OrigDataRate	OrigDataStartFrame	OrigNumFrames
100.000000	100.000000	4	52	mm	100.000000	88	142
Frame#	Time	L_IAS			L_IPS			R_IPS			R_IAS			L_FTC			L_FLE			L_FME			L_FAX			L_TTC			L_FAL			L_TAM			L_FCC			L_FM1			L_FM2			L_FM5			R_FTC			R_FLE			R_FME			R_FAX			R_TTC			R_FAL			R_TAM			R_FCC			R_FM1			R_FM2			R_FM5			CV7			TV10			SXS			SJN			L_SIA			L_SRS			L_SAA			L_SAE			L_HLE			L_HME			L_UOA			L_RSP			L_UHE			L_HM2			L_HM5			R_SIA			R_SRS			R_SAA			R_SAE			R_HLE			R_HME			R_UOA			R_RSP			R_UHE			R_HM2			R_HM5			
		X1	Y1	Z1	X2	Y2	Z2	X3	Y3	Z3	X4	Y4	Z4	X5	Y5	Z5	X6	Y6	Z6	X7	Y7	Z7	X8	Y8	Z8	X9	Y9	Z9	X10	Y10	Z10	X11	Y11	Z11	X12	Y12	Z12	X13	Y13	Z13	X14	Y14	Z14	X15	Y15	Z15	X16	Y16	Z16	X17	Y17	Z17	X18	Y18	Z18	X19	Y19	Z19	X20	Y20	Z20	X21	Y21	Z21	X22	Y22	Z22	X23	Y23	Z23	X24	Y24	Z24	X25	Y25	Z25	X26	Y26	Z26	X27	Y27	Z27	X28	Y28	Z28	X29	Y29	Z29	X30	Y30	Z30	X31	Y31	Z31	X32	Y32	Z32	X33	Y33	Z33	X34	Y34	Z34	X35	Y35	Z35	X36	Y36	Z36	X37	Y37	Z37	X38	Y38	Z38	X39	Y39	Z39	X40	Y40	Z40	X41	Y41	Z41	X42	Y42	Z42	X43	Y43	Z43	X44	Y44	Z44	X45	Y45	Z45	X46	Y46	Z46	X47	Y47	Z47	X48	Y48	Z48	X49	Y49	Z49	X50	Y50	Z50	X51	Y51	Z51	X52	Y52	Z52	

89	0.88	1236.88427734375	862.4449462890627	-301.4990539550782	1033.286743164063	872.6612548828127	-269.5199584960938	1025.485595703125	878.659851074219	-162.331039428711	1218.740966796875	865.092468261719	-88.41931152343751	1193.544189453125	775.049499511719	-395.6162109375001	1355.19287109375	438.9479064941407	-347.4575195312501	1359.833374023438	436.5762634277345	-210.2406463623047	1352.1728515625	374.7343444824219	-352.9734802246094	1412.230712890625	385.714813232422	-297.2943115234376	1450.727905273438	76.22354125976564	-324.0037231445313	1467.576782226563	88.53930664062501	-239.6723022460938	1430.216430664063	9.292229652404787	-270.1617126464844	1585.030029296875	85.65420532226564	-250.5041046142579	1582.327758789063	100.5350952148438	-299.5060424804688	1559.807006835938	61.64774322509767	-343.2220764160157	1126.3173828125	777.2036743164065	-5.49526596069336	1013.716491699219	429.453826904297	-67.07446289062501	1031.3173828125	422.6782531738282	-205.0000000000001	965.8956298828127	384.7828674316407	-65.99888610839845	1032.124389648438	357.2915954589844	-118.3294296264649	844.5614013671877	82.37852478027345	-112.3448486328125	871.0823974609377	95.00579071044923	-200.9216461181641	792.5659179687502	54.38089752197267	-162.9250640869141	971.8279418945315	11.20721626281738	-188.5764465332032	979.0591430664065	32.57123184204102	-130.6949005126953	933.1776123046877	15.14096736907959	-83.63720703125001	1116.24609375	1352.801025390625	-213.9099273681641	1022.641296386719	1135.875	-200.8773193359376	1244.662963867188	1025.675170898438	-221.2372436523438	1223.660034179688	1257.290283203125	-222.5721588134766	1014.271850585938	1172.187866210938	-278.3277282714844	1061.279418945313	1284.26171875	-298.6303710937501	1104.089111328125	1294.667236328125	-367.7960205078126	1147.736450195313	1289.968505859375	-389.8192749023439	987.1937255859377	1036.54345703125	-448.5505676269532	947.142517089844	1045.456787109375	-373.0794372558594	943.6990356445315	1030.033203125	-429.1392517089845	912.4918212890627	810.5862426757815	-409.6155090332032	892.6211547851565	835.3255004882815	-473.7154235839845	865.8438110351565	742.2649536132814	-403.7176818847657	837.6699218750002	796.2634887695315	-478.4492187500001	1034.011962890625	1190.3623046875	-114.4925613403321	1081.807495117188	1294.2294921875	-115.92236328125	1139.240600585938	1295.95361328125	-54.02840042114259	1199.797241210938	1305.14794921875	-57.48152160644533	1284.2197265625	1030.134887695313	53.87070465087892	1249.659790039063	985.6367187500002	-7.812811374664308	1274.915893554688	977.7023925781252	39.61666870117188	1494.785888671875	933.9880981445315	7.063026428222658	1455.086059570313	882.5801391601565	38.52496719360352	1568.800048828125	904.452819824219	8.135874748229982	1511.53857421875	829.1021728515627	26.12174034118653	
90	0.89	1255.697875976563	861.9371337890627	-302.0675354003907	1051.991455078125	870.6730957031252	-271.8247680664063	1043.410888671875	877.3486938476565	-165.4139862060547	1236.327270507813	864.0671386718752	-88.74389648437501	1213.26904296875	774.302917480469	-396.7650451660157	1373.807861328125	437.5007934570314	-348.8858642578126	1377.759033203125	434.9105834960939	-211.3225555419922	1370.799072265625	373.3653259277344	-353.9940185546876	1431.370849609375	384.8992309570314	-299.0143432617188	1473.692260742188	75.93728637695314	-324.6614685058594	1490.607055664063	88.6399612426758	-240.4161987304688	1453.30615234375	9.443552017211916	-270.4886169433594	1608.017456054688	86.15393066406251	-250.9764709472657	1605.506103515625	100.4992294311524	-300.0846252441407	1583.138061523438	61.02271652221681	-343.3318786621094	1141.689819335938	777.3619384765627	-7.309489727020265	1026.478271484375	430.1976013183595	-66.91002655029298	1046.164306640625	422.0657348632814	-204.1638336181641	977.7673339843752	386.6900634765626	-65.93890380859376	1043.8017578125	356.9842834472657	-117.1703643798828	847.309509277344	87.30378723144533	-111.2175216674805	874.5479125976565	98.98552703857425	-199.5041656494141	794.6279296875002	61.43075180053712	-161.7977142333985	971.4218750000002	10.68273258209229	-189.0310363769532	978.9487304687502	32.34384155273438	-130.9085235595703	932.974792480469	14.86114311218262	-83.90142059326173	1133.615966796875	1351.065307617188	-215.7792358398438	1040.0810546875	1134.016235351563	-202.1539001464844	1261.941772460938	1023.739074707031	-222.2591094970704	1241.205932617188	1255.282592773438	-224.1181335449219	1031.768432617188	1170.357666015625	-279.4500732421876	1078.958251953125	1282.39208984375	-300.3294982910157	1121.763427734375	1292.982543945313	-369.4598693847657	1165.329833984375	1288.000610351563	-391.5938415527345	999.4712524414065	1038.09326171875	-449.5297241210939	960.2026367187502	1048.194702148438	-373.8795471191407	956.2380981445315	1032.563598632813	-430.0916748046876	918.827331542969	814.7082519531252	-409.3069763183595	900.2570800781252	839.0092773437502	-474.165740966797	868.3338012695315	749.7067260742189	-401.012908935547	842.8840332031252	802.707946777344	-477.5296020507814	1051.18505859375	1188.850830078125	-116.150993347168	1098.92626953125	1293.038208007813	-117.7711257934571	1156.408813476563	1295.05419921875	-55.99406051635744	1216.436767578125	1303.755493164063	-60.10084533691408	1303.967651367188	1031.838623046875	53.96398162841798	1268.84326171875	985.8455810546877	-6.689477920532228	1295.783081054688	978.5005493164065	39.91838455200196	1516.508666992188	942.8937988281252	3.8593487739563	1479.545043945313	889.904724121094	35.24870300292969	1591.442993164063	917.3898925781252	3.811096668243409	1538.161254882813	838.9221801757815	21.59695053100586	
91	0.9	1274.64501953125	861.748962402344	-302.6643066406251	1070.96875	869.151794433594	-274.1410827636719	1061.719970703125	876.4776611328127	-168.4844360351563	1254.32861328125	863.3445434570315	-89.30226898193361	1233.105712890625	773.9073486328127	-397.9858398437501	1392.353149414063	436.1726684570314	-350.4285583496094	1395.940307617188	433.5438537597657	-212.6554260253907	1388.924194335938	372.0640563964844	-355.0680541992188	1450.07421875	383.7855529785157	-300.8307800292969	1493.116821289063	75.1531448364258	-325.2427062988282	1510.2412109375	88.03420257568361	-241.0536499023438	1472.166381835938	9.574064254760744	-270.6906433105469	1627.448974609375	84.81346893310548	-251.6163024902344	1625.196166992188	98.63586425781253	-300.8452148437501	1602.455322265625	58.90447235107423	-343.5946655273438	1157.673095703125	777.586364746094	-9.233313560485842	1040.453857421875	430.8381652832032	-66.4792938232422	1062.156616210938	421.1492309570314	-202.9983978271485	990.8853759765627	388.5430908203126	-65.58989715576173	1056.676635742188	356.4642333984376	-115.6493682861328	850.8691406250002	92.77559661865236	-109.7668075561524	878.858825683594	103.2972640991211	-197.7070770263672	797.6531982421877	69.37268829345705	-160.3104400634766	970.676696777344	10.22420406341553	-189.6181945800782	978.6915283203127	32.05151748657227	-131.2601623535157	932.7786254882815	14.6611967086792	-84.16001129150392	1151.054077148438	1349.512084960938	-217.8273315429688	1057.803588867188	1132.29736328125	-203.5337524414063	1279.482421875	1022.234436035156	-223.3836669921876	1258.840209960938	1253.672729492188	-225.7651062011719	1049.561157226563	1168.738525390625	-280.7796630859376	1096.795166015625	1280.7216796875	-302.2451782226563	1139.727172851563	1291.485717773438	-371.3230285644532	1183.217651367188	1286.262573242188	-393.4719848632814	1013.030151367188	1039.445678710938	-450.801971435547	974.2677001953127	1050.730834960938	-375.1463623046876	970.0120849609377	1034.783569335938	-431.441619873047	927.2921142578127	818.5187988281252	-409.3588867187501	909.8920898437502	842.2429199218752	-474.9602966308595	873.3145751953127	756.9714355468751	-398.6126403808595	850.2136840820315	808.6782226562502	-476.8724670410157	1068.517578125	1187.529541015625	-117.9577789306641	1116.02978515625	1292.0283203125	-119.8305435180664	1173.466064453125	1294.483642578125	-58.14941787719728	1232.770629882813	1302.57568359375	-62.9586868286133	1322.845825195313	1033.618896484375	53.9867401123047	1287.001220703125	986.2444458007815	-5.58489227294922	1315.627075195313	979.4266357421877	40.17581176757813	1536.739868164063	951.068542480469	0.8220526576042178	1502.315673828125	896.7629394531252	32.12329101562501	1612.339233398438	929.4074707031252	-0.3247527182102204	1562.890991210938	848.1134033203127	17.21969413757325	
92	0.91	1293.701171875	861.7825317382815	-303.3119812011719	1090.165893554688	868.0867309570315	-276.4293212890626	1080.379028320313	875.9570922851565	-171.4333648681641	1272.724975585938	862.8377075195315	-90.11019897460939	1253.033325195313	773.8704833984377	-399.2949523925782	1410.832397460938	435.0010375976564	-352.0835266113282	1414.387573242188	432.5203857421876	-214.2389678955079	1406.6474609375	370.8622741699219	-356.2109680175782	1468.37939453125	382.4315490722657	-302.7008361816407	1509.235229492188	73.88210296630861	-325.7390441894532	1526.666015625	86.7415008544922	-241.5648345947266	1487.059692382813	9.648013114929201	-270.7912597656251	1643.537231445313	81.68951416015626	-252.3449096679688	1641.636352539063	95.02175140380861	-301.7200317382813	1618.019409179688	55.3878746032715	-344.0053405761719	1174.310668945313	777.754333496094	-11.20867443084717	1055.75244140625	431.2550048828126	-65.75635528564455	1079.360107421875	419.8361816406251	-201.4998168945313	1005.359680175781	390.229217529297	-64.91810607910158	1070.850341796875	355.6348876953126	-113.7526168823242	855.4082031250002	98.79563903808597	-108.0248107910157	884.1817016601565	107.9203720092774	-195.5638122558594	801.8845825195315	78.24088287353517	-158.5164947509766	969.6113891601565	9.953293800354006	-190.3007049560547	978.3081054687502	31.74010467529298	-131.7244415283203	932.6397094726565	14.69288444519043	-84.39357757568361	1168.568115234375	1348.140502929688	-220.0519104003907	1075.802612304688	1130.731079101563	-205.0150756835938	1297.30419921875	1021.154174804688	-224.5993957519532	1276.566650390625	1252.463134765625	-227.5006408691407	1067.647583007813	1167.303100585938	-282.3178710937501	1114.795288085938	1279.224731445313	-304.3733520507813	1157.976806640625	1290.138916015625	-373.3845214843751	1201.404418945313	1284.722290039063	-395.4503784179689	1027.911254882813	1040.466064453125	-452.3491516113282	989.3610839843752	1052.927368164063	-376.8595886230469	985.0339355468752	1036.568359375	-433.1650695800782	937.912292480469	821.8027954101565	-409.8153381347657	921.549499511719	844.8618774414065	-476.1101684570314	880.814880371094	763.7145385742189	-396.6746215820314	859.708923339844	813.9589843750002	-476.5686035156251	1086.014038085938	1186.398803710938	-119.8942947387696	1133.128784179688	1291.191772460938	-122.0916137695313	1190.42236328125	1294.220092773438	-60.47561645507814	1248.881958007813	1301.652709960938	-65.96810913085939	1340.8857421875	1035.408325195313	53.92757034301759	1304.206909179688	986.7825927734377	-4.545707225799561	1334.4501953125	980.4177856445315	40.38409423828126	1555.576904296875	958.316589355469	-2.007351636886597	1523.437622070313	902.9467773437502	29.21251106262208	1631.623046875	940.2064208984377	-4.204125404357911	1585.743530273438	856.404968261719	13.08859062194825	
